<!-- <svg xmlns="http://www.w3.org/2000/svg" width="8" height="8" viewBox="0 0 8 8" fill="none">
<path d="M3.06334 6.98869C2.98698 7.06551 2.88279 7.10836 2.77456 7.10836C2.66634 7.10836 2.56215 7.06551 2.48578 6.98869L0.179506 4.68204C-0.0598353 4.4427 -0.0598353 4.05459 0.179506 3.8157L0.468286 3.52684C0.707702 3.2875 1.09536 3.2875 1.3347 3.52684L2.77456 4.96678L6.66528 1.07599C6.9047 0.836649 7.29273 0.836649 7.5317 1.07599L7.82048 1.36485C8.05982 1.60419 8.05982 1.99222 7.82048 2.23119L3.06334 6.98869Z" fill="#0880AE"/>
</svg> -->

<svg xmlns="http://www.w3.org/2000/svg" width="24" height="24" viewBox="0 0 24 24" fill="none">
<path d="M18.6343 6.63434C18.9467 6.32192 19.4533 6.32192 19.7657 6.63434C20.0781 6.94676 20.0781 7.45329 19.7657 7.76571L10.1657 17.3657C9.85327 17.6781 9.34673 17.6781 9.03431 17.3657L5.03431 13.3657C4.7219 13.0533 4.7219 12.5468 5.03431 12.2343C5.34673 11.9219 5.85327 11.9219 6.16569 12.2343L9.6 15.6687L18.6343 6.63434Z" fill="#0880AE"/>
</svg>